<svg width="800" height="600" xmlns="http://www.w3.org/2000/svg" style="background-color: white; font-family: sans-serif;">
    
    <!-- Title -->
    <text x="400.0" y="40" font-size="24" font-weight="bold" text-anchor="middle" fill="#333">Cost-Quality Pareto Frontier</text>

    <!-- Axes -->
    <!-- X-axis -->
    <line x1="80" y1="520" x2="720" y2="520" stroke="#333" stroke-width="2" />
    <text x="400.0" y="580" font-size="16" text-anchor="middle" fill="#333">Token Saving Rate (%)</text>
    
    <!-- Y-axis -->
    <line x1="80" y1="80" x2="80" y2="520" stroke="#333" stroke-width="2" />
    <text x="30" y="300.0" font-size="16" text-anchor="middle" transform="rotate(-90, 30, 300.0)" fill="#333">Success Rate (%)</text>

    <!-- Grid lines and labels -->
    <line x1="80.0" y1="80" x2="80.0" y2="520" stroke="#eee" stroke-width="1" />
<text x="80.0" y="540" font-size="12" text-anchor="middle" fill="#666">0</text>
<line x1="240.0" y1="80" x2="240.0" y2="520" stroke="#eee" stroke-width="1" />
<text x="240.0" y="540" font-size="12" text-anchor="middle" fill="#666">5</text>
<line x1="400.0" y1="80" x2="400.0" y2="520" stroke="#eee" stroke-width="1" />
<text x="400.0" y="540" font-size="12" text-anchor="middle" fill="#666">10</text>
<line x1="560.0" y1="80" x2="560.0" y2="520" stroke="#eee" stroke-width="1" />
<text x="560.0" y="540" font-size="12" text-anchor="middle" fill="#666">15</text>
<line x1="720.0" y1="80" x2="720.0" y2="520" stroke="#eee" stroke-width="1" />
<text x="720.0" y="540" font-size="12" text-anchor="middle" fill="#666">20</text>
<line x1="80" y1="520.0" x2="720" y2="520.0" stroke="#eee" stroke-width="1" />
<text x="70" y="525.0" font-size="12" text-anchor="end" fill="#666">70</text>
<line x1="80" y1="394.2857142857143" x2="720" y2="394.2857142857143" stroke="#eee" stroke-width="1" />
<text x="70" y="399.2857142857143" font-size="12" text-anchor="end" fill="#666">80</text>
<line x1="80" y1="268.57142857142856" x2="720" y2="268.57142857142856" stroke="#eee" stroke-width="1" />
<text x="70" y="273.57142857142856" font-size="12" text-anchor="end" fill="#666">90</text>
<line x1="80" y1="142.8571428571429" x2="720" y2="142.8571428571429" stroke="#eee" stroke-width="1" />
<text x="70" y="147.8571428571429" font-size="12" text-anchor="end" fill="#666">100</text>
<path d="M 80.0 168.0 Q 400.0 205.71428571428572 592.0 293.7142857142857" fill="transparent" stroke="#1f77b4" stroke-width="2" stroke-dasharray="5,5" />
<circle cx="80.0" cy="168.0" r="8" fill="#7f7f7f" stroke="#333" stroke-width="1" />
<text x="80.0" y="153.0" font-size="14" font-weight="bold" text-anchor="middle" fill="#7f7f7f">Baseline (Raw)</text>
<text x="80.0" y="168.0" font-size="12" text-anchor="middle" fill="#666">(0%, 98%)</text>
<circle cx="342.4" cy="331.42857142857144" r="8" fill="#d62728" stroke="#333" stroke-width="1" />
<text x="342.4" y="351.42857142857144" font-size="14" font-weight="bold" text-anchor="middle" fill="#d62728">Static Rule</text>
<text x="342.4" y="366.42857142857144" font-size="12" text-anchor="middle" fill="#666">(8.2%, 85%)</text>
<circle cx="476.8" cy="369.1428571428571" r="8" fill="#2ca02c" stroke="#333" stroke-width="1" />
<text x="476.8" y="389.1428571428571" font-size="14" font-weight="bold" text-anchor="middle" fill="#2ca02c">e-Greedy</text>
<text x="476.8" y="404.1428571428571" font-size="12" text-anchor="middle" fill="#666">(12.4%, 82%)</text>
<circle cx="592.0" cy="293.7142857142857" r="8" fill="#1f77b4" stroke="#333" stroke-width="1" />
<text x="592.0" y="278.7142857142857" font-size="14" font-weight="bold" text-anchor="middle" fill="#1f77b4">LinUCB (Ours)</text>
<text x="592.0" y="293.7142857142857" font-size="12" text-anchor="middle" fill="#666">(16.0%, 88%)</text>
</svg>